<mxfile host="app.diagrams.net" agent="Mozilla/5.0 (Macintosh; Intel Mac OS X 10_15_7) AppleWebKit/537.36 (KHTML, like Gecko) Chrome/138.0.0.0 Safari/537.36" version="27.1.4">
  <diagram name="第 1 页" id="nlWyaOgRpIHHhP245gur">
    <mxGraphModel dx="2066" dy="342839" grid="0" gridSize="10" guides="1" tooltips="1" connect="1" arrows="1" fold="1" page="1" pageScale="1" pageWidth="3300" pageHeight="4681" math="0" shadow="0">
      <root>
        <mxCell id="0" />
        <mxCell id="1" parent="0" />
        <mxCell id="j-8siDMb3IPo47aAKp7Q-8" value="" style="rounded=0;whiteSpace=wrap;html=1;" vertex="1" parent="1">
          <mxGeometry x="740" y="60" width="1110" height="990" as="geometry" />
        </mxCell>
        <mxCell id="j-8siDMb3IPo47aAKp7Q-5" value="" style="rounded=0;whiteSpace=wrap;html=1;fillColor=#99CCFF;" vertex="1" parent="1">
          <mxGeometry x="740" y="344" width="1110" height="360" as="geometry" />
        </mxCell>
        <mxCell id="j-8siDMb3IPo47aAKp7Q-18" style="edgeStyle=orthogonalEdgeStyle;rounded=0;orthogonalLoop=1;jettySize=auto;html=1;" edge="1" parent="1" source="j-8siDMb3IPo47aAKp7Q-7">
          <mxGeometry relative="1" as="geometry">
            <mxPoint x="1170" y="253" as="targetPoint" />
          </mxGeometry>
        </mxCell>
        <mxCell id="j-8siDMb3IPo47aAKp7Q-7" value="货运服务" style="rounded=0;whiteSpace=wrap;html=1;fillColor=#9AC7BF;" vertex="1" parent="1">
          <mxGeometry x="1110" y="119" width="120" height="60" as="geometry" />
        </mxCell>
        <mxCell id="j-8siDMb3IPo47aAKp7Q-9" value="&lt;font style=&quot;font-size: 14px;&quot;&gt;三方应用系统&lt;/font&gt;" style="text;html=1;align=center;verticalAlign=middle;whiteSpace=wrap;rounded=0;" vertex="1" parent="1">
          <mxGeometry x="346" y="134" width="104" height="28" as="geometry" />
        </mxCell>
        <mxCell id="j-8siDMb3IPo47aAKp7Q-10" value="" style="endArrow=none;dashed=1;html=1;dashPattern=1 3;strokeWidth=2;rounded=0;exitX=1;exitY=0.5;exitDx=0;exitDy=0;entryX=0;entryY=0.09;entryDx=0;entryDy=0;entryPerimeter=0;" edge="1" parent="1" source="j-8siDMb3IPo47aAKp7Q-9" target="j-8siDMb3IPo47aAKp7Q-8">
          <mxGeometry width="50" height="50" relative="1" as="geometry">
            <mxPoint x="420" y="171" as="sourcePoint" />
            <mxPoint x="470" y="121" as="targetPoint" />
          </mxGeometry>
        </mxCell>
        <mxCell id="j-8siDMb3IPo47aAKp7Q-19" style="edgeStyle=orthogonalEdgeStyle;rounded=0;orthogonalLoop=1;jettySize=auto;html=1;" edge="1" parent="1" source="j-8siDMb3IPo47aAKp7Q-13">
          <mxGeometry relative="1" as="geometry">
            <mxPoint x="1408" y="253" as="targetPoint" />
          </mxGeometry>
        </mxCell>
        <mxCell id="j-8siDMb3IPo47aAKp7Q-13" value="..." style="rounded=0;whiteSpace=wrap;html=1;fillColor=#9AC7BF;" vertex="1" parent="1">
          <mxGeometry x="1348" y="119" width="120" height="60" as="geometry" />
        </mxCell>
        <mxCell id="j-8siDMb3IPo47aAKp7Q-15" value="" style="shape=link;html=1;rounded=0;" edge="1" parent="1" target="j-8siDMb3IPo47aAKp7Q-8">
          <mxGeometry width="100" relative="1" as="geometry">
            <mxPoint x="740" y="257" as="sourcePoint" />
            <mxPoint x="840" y="257" as="targetPoint" />
            <Array as="points">
              <mxPoint x="1847" y="257" />
            </Array>
          </mxGeometry>
        </mxCell>
        <mxCell id="j-8siDMb3IPo47aAKp7Q-16" value="&lt;font style=&quot;font-size: 18px;&quot;&gt;网关&lt;/font&gt;" style="edgeLabel;html=1;align=center;verticalAlign=middle;resizable=0;points=[];" vertex="1" connectable="0" parent="j-8siDMb3IPo47aAKp7Q-15">
          <mxGeometry x="1289" y="2" relative="1" as="geometry">
            <mxPoint as="offset" />
          </mxGeometry>
        </mxCell>
        <mxCell id="j-8siDMb3IPo47aAKp7Q-37" value="网关" style="edgeLabel;html=1;align=center;verticalAlign=middle;resizable=0;points=[];" vertex="1" connectable="0" parent="j-8siDMb3IPo47aAKp7Q-15">
          <mxGeometry x="-0.0148" y="-2" relative="1" as="geometry">
            <mxPoint as="offset" />
          </mxGeometry>
        </mxCell>
        <mxCell id="j-8siDMb3IPo47aAKp7Q-20" value="&lt;span style=&quot;font-size: 14px;&quot;&gt;增值业务系统&lt;/span&gt;" style="text;html=1;align=center;verticalAlign=middle;whiteSpace=wrap;rounded=0;" vertex="1" parent="1">
          <mxGeometry x="346" y="499" width="110" height="28" as="geometry" />
        </mxCell>
        <mxCell id="j-8siDMb3IPo47aAKp7Q-21" value="" style="endArrow=none;dashed=1;html=1;dashPattern=1 3;strokeWidth=2;rounded=0;exitX=1;exitY=0.5;exitDx=0;exitDy=0;entryX=0;entryY=0.09;entryDx=0;entryDy=0;entryPerimeter=0;" edge="1" parent="1" source="j-8siDMb3IPo47aAKp7Q-20">
          <mxGeometry width="50" height="50" relative="1" as="geometry">
            <mxPoint x="420" y="536" as="sourcePoint" />
            <mxPoint x="740" y="514" as="targetPoint" />
          </mxGeometry>
        </mxCell>
        <mxCell id="j-8siDMb3IPo47aAKp7Q-22" value="" style="shape=link;html=1;rounded=0;" edge="1" parent="1">
          <mxGeometry width="100" relative="1" as="geometry">
            <mxPoint x="740" y="914" as="sourcePoint" />
            <mxPoint x="1850" y="912" as="targetPoint" />
            <Array as="points">
              <mxPoint x="1847" y="914" />
            </Array>
          </mxGeometry>
        </mxCell>
        <mxCell id="j-8siDMb3IPo47aAKp7Q-24" value="轨迹" style="rounded=0;whiteSpace=wrap;html=1;fillColor=#FFF2CC;" vertex="1" parent="1">
          <mxGeometry x="1021" y="949" width="120" height="60" as="geometry" />
        </mxCell>
        <mxCell id="j-8siDMb3IPo47aAKp7Q-25" value="OCR" style="rounded=0;whiteSpace=wrap;html=1;fillColor=#FFF2CC;" vertex="1" parent="1">
          <mxGeometry x="1249" y="949" width="120" height="60" as="geometry" />
        </mxCell>
        <mxCell id="j-8siDMb3IPo47aAKp7Q-26" value="合同" style="rounded=0;whiteSpace=wrap;html=1;fillColor=#FFF2CC;" vertex="1" parent="1">
          <mxGeometry x="1476" y="949" width="120" height="60" as="geometry" />
        </mxCell>
        <mxCell id="j-8siDMb3IPo47aAKp7Q-29" value="&lt;span style=&quot;font-size: 14px;&quot;&gt;业务数据提供系统&lt;/span&gt;" style="text;html=1;align=center;verticalAlign=middle;whiteSpace=wrap;rounded=0;" vertex="1" parent="1">
          <mxGeometry x="348" y="976" width="133" height="28" as="geometry" />
        </mxCell>
        <mxCell id="j-8siDMb3IPo47aAKp7Q-30" value="" style="endArrow=none;dashed=1;html=1;dashPattern=1 3;strokeWidth=2;rounded=0;exitX=1;exitY=0.5;exitDx=0;exitDy=0;entryX=0;entryY=0.09;entryDx=0;entryDy=0;entryPerimeter=0;" edge="1" parent="1" source="j-8siDMb3IPo47aAKp7Q-29">
          <mxGeometry width="50" height="50" relative="1" as="geometry">
            <mxPoint x="422" y="1013" as="sourcePoint" />
            <mxPoint x="742" y="991" as="targetPoint" />
          </mxGeometry>
        </mxCell>
        <mxCell id="j-8siDMb3IPo47aAKp7Q-39" value="" style="rounded=0;whiteSpace=wrap;html=1;fillColor=#FFE599;" vertex="1" parent="1">
          <mxGeometry x="787" y="447" width="428" height="247" as="geometry" />
        </mxCell>
        <mxCell id="j-8siDMb3IPo47aAKp7Q-41" value="&lt;font style=&quot;font-size: 14px;&quot;&gt;数据存储/处理/配置&lt;/font&gt;" style="text;html=1;align=center;verticalAlign=middle;whiteSpace=wrap;rounded=0;" vertex="1" parent="1">
          <mxGeometry x="923" y="447" width="154" height="32" as="geometry" />
        </mxCell>
        <mxCell id="j-8siDMb3IPo47aAKp7Q-42" value="mysql" style="shape=datastore;whiteSpace=wrap;html=1;fillColor=#CCCCCC;" vertex="1" parent="1">
          <mxGeometry x="868" y="610" width="60" height="60" as="geometry" />
        </mxCell>
        <mxCell id="j-8siDMb3IPo47aAKp7Q-43" value="redis" style="shape=datastore;whiteSpace=wrap;html=1;fillColor=#FF3333;" vertex="1" parent="1">
          <mxGeometry x="1079" y="610" width="60" height="60" as="geometry" />
        </mxCell>
        <mxCell id="j-8siDMb3IPo47aAKp7Q-44" value="" style="shape=flexArrow;endArrow=classic;html=1;rounded=0;entryX=0.5;entryY=1;entryDx=0;entryDy=0;" edge="1" parent="1" target="j-8siDMb3IPo47aAKp7Q-5">
          <mxGeometry width="50" height="50" relative="1" as="geometry">
            <mxPoint x="1295" y="905" as="sourcePoint" />
            <mxPoint x="1359" y="853" as="targetPoint" />
          </mxGeometry>
        </mxCell>
        <mxCell id="j-8siDMb3IPo47aAKp7Q-45" value="业务数据提供" style="edgeLabel;html=1;align=center;verticalAlign=middle;resizable=0;points=[];" vertex="1" connectable="0" parent="j-8siDMb3IPo47aAKp7Q-44">
          <mxGeometry x="-0.2271" y="-3" relative="1" as="geometry">
            <mxPoint as="offset" />
          </mxGeometry>
        </mxCell>
        <mxCell id="j-8siDMb3IPo47aAKp7Q-47" value="kafka" style="rounded=1;whiteSpace=wrap;html=1;fillColor=#E6E6E6;" vertex="1" parent="1">
          <mxGeometry x="837" y="517" width="122" height="38" as="geometry" />
        </mxCell>
        <mxCell id="j-8siDMb3IPo47aAKp7Q-49" value="consul" style="rounded=1;whiteSpace=wrap;html=1;fillColor=#E6E6E6;" vertex="1" parent="1">
          <mxGeometry x="1038" y="517" width="122" height="38" as="geometry" />
        </mxCell>
        <mxCell id="j-8siDMb3IPo47aAKp7Q-50" value="&lt;span style=&quot;font-size: 14px;&quot;&gt;增值业务系统提供系统管理、&lt;/span&gt;企业管理、API管理、账单管理、白名单管理" style="rounded=1;whiteSpace=wrap;html=1;fillColor=#CCCCCC;" vertex="1" parent="1">
          <mxGeometry x="787" y="350" width="1013" height="52" as="geometry" />
        </mxCell>
        <mxCell id="j-8siDMb3IPo47aAKp7Q-51" value="" style="rounded=0;whiteSpace=wrap;html=1;fillColor=#FFE599;" vertex="1" parent="1">
          <mxGeometry x="1372" y="442" width="428" height="247" as="geometry" />
        </mxCell>
        <mxCell id="j-8siDMb3IPo47aAKp7Q-52" value="&lt;span style=&quot;font-size: 14px;&quot;&gt;系统技术支持&lt;/span&gt;" style="text;html=1;align=center;verticalAlign=middle;whiteSpace=wrap;rounded=0;" vertex="1" parent="1">
          <mxGeometry x="1508" y="442" width="154" height="32" as="geometry" />
        </mxCell>
        <mxCell id="j-8siDMb3IPo47aAKp7Q-55" value="spring boot" style="rounded=1;whiteSpace=wrap;html=1;fillColor=#E6E6E6;" vertex="1" parent="1">
          <mxGeometry x="1422" y="512" width="122" height="38" as="geometry" />
        </mxCell>
        <mxCell id="j-8siDMb3IPo47aAKp7Q-57" value="spring cloud" style="rounded=1;whiteSpace=wrap;html=1;fillColor=#E6E6E6;" vertex="1" parent="1">
          <mxGeometry x="1422" y="569" width="122" height="38" as="geometry" />
        </mxCell>
        <mxCell id="j-8siDMb3IPo47aAKp7Q-58" value="mybatis-plus" style="rounded=1;whiteSpace=wrap;html=1;fillColor=#E6E6E6;" vertex="1" parent="1">
          <mxGeometry x="1612" y="576" width="122" height="38" as="geometry" />
        </mxCell>
        <mxCell id="j-8siDMb3IPo47aAKp7Q-59" value="sa-token" style="rounded=1;whiteSpace=wrap;html=1;fillColor=#E6E6E6;" vertex="1" parent="1">
          <mxGeometry x="1612" y="512" width="122" height="38" as="geometry" />
        </mxCell>
        <mxCell id="j-8siDMb3IPo47aAKp7Q-61" value="用户" style="shape=umlActor;verticalLabelPosition=bottom;verticalAlign=top;html=1;" vertex="1" parent="1">
          <mxGeometry x="2250" y="494" width="30" height="60" as="geometry" />
        </mxCell>
        <mxCell id="j-8siDMb3IPo47aAKp7Q-62" value="企业管理" style="ellipse;whiteSpace=wrap;html=1;fillColor=#FFD966;" vertex="1" parent="1">
          <mxGeometry x="2522" y="253" width="140" height="70" as="geometry" />
        </mxCell>
        <mxCell id="j-8siDMb3IPo47aAKp7Q-63" value="API管理" style="ellipse;whiteSpace=wrap;html=1;fillColor=#FFD966;" vertex="1" parent="1">
          <mxGeometry x="2525" y="407" width="140" height="70" as="geometry" />
        </mxCell>
        <mxCell id="j-8siDMb3IPo47aAKp7Q-64" value="账户/账单管理" style="ellipse;whiteSpace=wrap;html=1;fillColor=#FFD966;" vertex="1" parent="1">
          <mxGeometry x="2529" y="560" width="140" height="70" as="geometry" />
        </mxCell>
        <mxCell id="j-8siDMb3IPo47aAKp7Q-65" value="IP白名单" style="ellipse;whiteSpace=wrap;html=1;fillColor=#FFD966;" vertex="1" parent="1">
          <mxGeometry x="2532" y="714" width="140" height="70" as="geometry" />
        </mxCell>
        <mxCell id="j-8siDMb3IPo47aAKp7Q-72" value="" style="endArrow=classic;html=1;rounded=0;" edge="1" parent="1">
          <mxGeometry width="50" height="50" relative="1" as="geometry">
            <mxPoint x="2295" y="505" as="sourcePoint" />
            <mxPoint x="2519" y="295" as="targetPoint" />
          </mxGeometry>
        </mxCell>
        <mxCell id="j-8siDMb3IPo47aAKp7Q-74" value="" style="endArrow=classic;html=1;rounded=0;entryX=0;entryY=0.5;entryDx=0;entryDy=0;" edge="1" parent="1" target="j-8siDMb3IPo47aAKp7Q-63">
          <mxGeometry width="50" height="50" relative="1" as="geometry">
            <mxPoint x="2302" y="522" as="sourcePoint" />
            <mxPoint x="2352" y="472" as="targetPoint" />
          </mxGeometry>
        </mxCell>
        <mxCell id="j-8siDMb3IPo47aAKp7Q-75" value="" style="endArrow=classic;html=1;rounded=0;" edge="1" parent="1">
          <mxGeometry width="50" height="50" relative="1" as="geometry">
            <mxPoint x="2304" y="541" as="sourcePoint" />
            <mxPoint x="2523" y="594" as="targetPoint" />
          </mxGeometry>
        </mxCell>
        <mxCell id="j-8siDMb3IPo47aAKp7Q-77" value="" style="endArrow=classic;html=1;rounded=0;" edge="1" parent="1">
          <mxGeometry width="50" height="50" relative="1" as="geometry">
            <mxPoint x="2300" y="555" as="sourcePoint" />
            <mxPoint x="2518" y="748" as="targetPoint" />
          </mxGeometry>
        </mxCell>
        <mxCell id="j-8siDMb3IPo47aAKp7Q-78" value="运营管理员" style="shape=umlActor;verticalLabelPosition=bottom;verticalAlign=top;html=1;" vertex="1" parent="1">
          <mxGeometry x="3162" y="494" width="30" height="60" as="geometry" />
        </mxCell>
        <mxCell id="j-8siDMb3IPo47aAKp7Q-81" value="系统管理" style="ellipse;whiteSpace=wrap;html=1;fillColor=#FFD966;" vertex="1" parent="1">
          <mxGeometry x="2811" y="786" width="140" height="70" as="geometry" />
        </mxCell>
        <mxCell id="j-8siDMb3IPo47aAKp7Q-82" value="账户余额分配" style="ellipse;whiteSpace=wrap;html=1;fillColor=#FFD966;" vertex="1" parent="1">
          <mxGeometry x="2830" y="228" width="140" height="70" as="geometry" />
        </mxCell>
        <mxCell id="j-8siDMb3IPo47aAKp7Q-83" value="" style="endArrow=open;endFill=1;endSize=12;html=1;rounded=0;" edge="1" parent="1">
          <mxGeometry width="160" relative="1" as="geometry">
            <mxPoint x="3122" y="527" as="sourcePoint" />
            <mxPoint x="2979" y="300" as="targetPoint" />
          </mxGeometry>
        </mxCell>
        <mxCell id="j-8siDMb3IPo47aAKp7Q-84" value="" style="endArrow=open;endFill=1;endSize=12;html=1;rounded=0;" edge="1" parent="1">
          <mxGeometry width="160" relative="1" as="geometry">
            <mxPoint x="3130" y="594" as="sourcePoint" />
            <mxPoint x="2963" y="831" as="targetPoint" />
          </mxGeometry>
        </mxCell>
        <mxCell id="j-8siDMb3IPo47aAKp7Q-85" value="" style="endArrow=open;endFill=1;endSize=12;html=1;rounded=0;" edge="1" parent="1">
          <mxGeometry width="160" relative="1" as="geometry">
            <mxPoint x="3114" y="537" as="sourcePoint" />
            <mxPoint x="2689" y="321" as="targetPoint" />
          </mxGeometry>
        </mxCell>
        <mxCell id="j-8siDMb3IPo47aAKp7Q-86" value="" style="endArrow=open;endFill=1;endSize=12;html=1;rounded=0;" edge="1" parent="1">
          <mxGeometry width="160" relative="1" as="geometry">
            <mxPoint x="3099" y="552" as="sourcePoint" />
            <mxPoint x="2689" y="451" as="targetPoint" />
          </mxGeometry>
        </mxCell>
        <mxCell id="j-8siDMb3IPo47aAKp7Q-87" value="" style="endArrow=open;endFill=1;endSize=12;html=1;rounded=0;" edge="1" parent="1">
          <mxGeometry width="160" relative="1" as="geometry">
            <mxPoint x="3093" y="563.5" as="sourcePoint" />
            <mxPoint x="2692" y="588" as="targetPoint" />
          </mxGeometry>
        </mxCell>
        <mxCell id="j-8siDMb3IPo47aAKp7Q-88" value="" style="endArrow=open;endFill=1;endSize=12;html=1;rounded=0;" edge="1" parent="1">
          <mxGeometry width="160" relative="1" as="geometry">
            <mxPoint x="3111" y="585.5" as="sourcePoint" />
            <mxPoint x="2693" y="734" as="targetPoint" />
          </mxGeometry>
        </mxCell>
      </root>
    </mxGraphModel>
  </diagram>
</mxfile>
